HIERARCHY
ROOT hip
{
  OFFSET 0 0 0
  CHANNELS 6 Xposition Yposition Zposition Zrotation Yrotation Xrotation
  JOINT abdomen
  {
    OFFSET 0 20.6881 -0.73152
    CHANNELS 3 Zrotation Xrotation Yrotation
    JOINT chest
    {
      OFFSET 0 11.7043 -0.48768
      CHANNELS 3 Zrotation Xrotation Yrotation
      JOINT neck
      {
        OFFSET 0 22.1894 -2.19456
        CHANNELS 3 Zrotation Xrotation Yrotation
        JOINT head
        {
          OFFSET -0.24384 7.07133 1.2192
          CHANNELS 3 Zrotation Xrotation Yrotation
          JOINT leftEye
          {
            OFFSET 4.14528 8.04674 8.04672
            CHANNELS 3 Zrotation Xrotation Yrotation
            End Site
            {
              OFFSET 1 0 0
            }
          }
          JOINT rightEye
          {
            OFFSET -3.6576 8.04674 8.04672
            CHANNELS 3 Zrotation Xrotation Yrotation
            End Site
            {
              OFFSET 1 0 0
            }
          }
        }
      }
      JOINT rCollar
      {
        OFFSET -2.68224 19.2634 -4.8768
        CHANNELS 3 Zrotation Xrotation Yrotation
        JOINT rShldr
        {
          OFFSET -8.77824 -1.95073 1.46304
          CHANNELS 3 Zrotation Xrotation Yrotation
          JOINT rForeArm
          {
            OFFSET -28.1742 -1.7115 0.48768
            CHANNELS 3 Zrotation Xrotation Yrotation
            JOINT rHand
            {
              OFFSET -22.5879 0.773209 7.07136
              CHANNELS 3 Zrotation Xrotation Yrotation
              JOINT rThumb1
              {
                OFFSET -1.2192 -0.487915 3.41376
                CHANNELS 3 Zrotation Xrotation Yrotation
                JOINT rThumb2
                {
                  OFFSET -3.37035 -0.52449 3.41376
                  CHANNELS 3 Zrotation Xrotation Yrotation
                  End Site
                  {
                    OFFSET -1.78271 -1.18214 1.43049
                  }
                }
              }
              JOINT rIndex1
              {
                OFFSET -7.75947 0.938293 5.60832
                CHANNELS 3 Zrotation Xrotation Yrotation
                JOINT rIndex2
                {
                  OFFSET -2.54057 -0.884171 1.56538
                  CHANNELS 3 Zrotation Xrotation Yrotation
                  End Site
                  {
                    OFFSET -1.62519 -0.234802 1.16502
                  }
                }
              }
              JOINT rMid1
              {
                OFFSET -8.24714 1.18213 3.41376
                CHANNELS 3 Zrotation Xrotation Yrotation
                JOINT rMid2
                {
                  OFFSET -3.10165 -0.590103 1.0647
                  CHANNELS 3 Zrotation Xrotation Yrotation
                  End Site
                  {
                    OFFSET -2.48547 -0.328903 0.83742
                  }
                }
              }
              JOINT rRing1
              {
                OFFSET -8.82822 0.546677 1.51678
                CHANNELS 3 Zrotation Xrotation Yrotation
                JOINT rRing2
                {
                  OFFSET -2.60934 -0.819778 -0.0198488
                  CHANNELS 3 Zrotation Xrotation Yrotation
                  End Site
                  {
                    OFFSET -2.33842 -0.294052 0.168128
                  }
                }
              }
              JOINT rPinky1
              {
                OFFSET -8.27202 -0.0477905 -0.4584
                CHANNELS 3 Zrotation Xrotation Yrotation
                JOINT rPinky2
                {
                  OFFSET -1.82734 -0.647385 -0.700984
                  CHANNELS 3 Zrotation Xrotation Yrotation
                  End Site
                  {
                    OFFSET -1.69225 -0.51767 -0.607171
                  }
                }
              }
            }
          }
        }
      }
      JOINT lCollar
      {
        OFFSET 2.68224 19.2634 -4.8768
        CHANNELS 3 Zrotation Xrotation Yrotation
        JOINT lShldr
        {
          OFFSET 8.77824 -1.95073 1.46304
          CHANNELS 3 Zrotation Xrotation Yrotation
          JOINT lForeArm
          {
            OFFSET 28.1742 -1.7115 0.48768
            CHANNELS 3 Zrotation Xrotation Yrotation
            JOINT lHand
            {
              OFFSET 22.5879 0.773209 7.07136
              CHANNELS 3 Zrotation Xrotation Yrotation
              JOINT lThumb1
              {
                OFFSET 1.2192 -0.487915 3.41376
                CHANNELS 3 Zrotation Xrotation Yrotation
                JOINT lThumb2
                {
                  OFFSET 3.37035 -0.52449 3.41376
                  CHANNELS 3 Zrotation Xrotation Yrotation
                  End Site
                  {
                    OFFSET 1.78271 -1.18214 1.43049
                  }
                }
              }
              JOINT lIndex1
              {
                OFFSET 7.75947 0.938293 5.60832
                CHANNELS 3 Zrotation Xrotation Yrotation
                JOINT lIndex2
                {
                  OFFSET 2.54057 -0.884171 1.56538
                  CHANNELS 3 Zrotation Xrotation Yrotation
                  End Site
                  {
                    OFFSET 1.62519 -0.234802 1.16502
                  }
                }
              }
              JOINT lMid1
              {
                OFFSET 8.24714 1.18213 3.41376
                CHANNELS 3 Zrotation Xrotation Yrotation
                JOINT lMid2
                {
                  OFFSET 3.10165 -0.590103 1.0647
                  CHANNELS 3 Zrotation Xrotation Yrotation
                  End Site
                  {
                    OFFSET 2.48547 -0.328903 0.83742
                  }
                }
              }
              JOINT lRing1
              {
                OFFSET 8.82822 0.546677 1.51678
                CHANNELS 3 Zrotation Xrotation Yrotation
                JOINT lRing2
                {
                  OFFSET 2.60934 -0.819778 -0.0198488
                  CHANNELS 3 Zrotation Xrotation Yrotation
                  End Site
                  {
                    OFFSET 2.33842 -0.294052 0.168128
                  }
                }
              }
              JOINT lPinky1
              {
                OFFSET 8.27202 -0.0477905 -0.4584
                CHANNELS 3 Zrotation Xrotation Yrotation
                JOINT lPinky2
                {
                  OFFSET 1.82734 -0.647385 -0.700984
                  CHANNELS 3 Zrotation Xrotation Yrotation
                  End Site
                  {
                    OFFSET 1.69225 -0.51767 -0.607171
                  }
                }
              }
            }
          }
        }
      }
    }
  }
  JOINT rButtock
  {
    OFFSET -8.77824 4.35084 1.2192
    CHANNELS 3 Zrotation Xrotation Yrotation
    JOINT rThigh
    {
      OFFSET 0 -1.70687 -2.19456
      CHANNELS 3 Zrotation Xrotation Yrotation
      JOINT rShin
      {
        OFFSET 0 -36.8199 0.73152
        CHANNELS 3 Zrotation Xrotation Yrotation
        JOINT rFoot
        {
          OFFSET 0.73152 -45.1104 -5.12064
          CHANNELS 3 Zrotation Xrotation Yrotation
          End Site
          {
            OFFSET -1.1221 -3.69964 12.103
          }
        }
      }
    }
  }
  JOINT lButtock
  {
    OFFSET 8.77824 4.35084 1.2192
    CHANNELS 3 Zrotation Xrotation Yrotation
    JOINT lThigh
    {
      OFFSET 0 -1.70687 -2.19456
      CHANNELS 3 Zrotation Xrotation Yrotation
      JOINT lShin
      {
        OFFSET 0 -36.8199 0.73152
        CHANNELS 3 Zrotation Xrotation Yrotation
        JOINT lFoot
        {
          OFFSET -0.73152 -45.1104 -5.12064
          CHANNELS 3 Zrotation Xrotation Yrotation
          End Site
          {
            OFFSET 1.1221 -3.69964 12.103
          }
        }
      }
    }
  }
}
MOTION
Frames:	4
Frame Time:	0.00833333
2.05997 83.1296 49.4089 -10.3558 -0.5848 6.3407 7.30807 -2.20309 0.616605 -12.8288 -16.7924 -1.9661 -5.64863 9.50123 -9.55129 17.5943 23.1125 -22.3564 -0.0 0.0 0.0 -0.0 0.0 0.0 -3.19053e-13 -1.34572e-13 3.97973e-14 -40.3801 61.9108 143.911 -25.56 -47.0481 97.8675 -0.145373 -11.2949 -1.60516 8.0384e-10 3.67096e-11 -1.47148e-09 1.40258e-09 6.34449e-11 -2.53125e-09 8.03845e-10 3.67056e-11 -1.47148e-09 7.73091 5.47488 0.417314 8.03843e-10 3.67039e-11 -1.47148e-09 2.90554 0.965183 0.102902 8.03843e-10 3.67031e-11 -1.47148e-09 10.2786 0.731801 0.0259123 8.0383e-10 3.67057e-11 -1.47146e-09 2.22167 -0.733487 -0.20892 -3.19073e-13 -1.34582e-13 3.9611e-14 28.8177 66.8074 -110.072 27.6477 -28.8472 -65.3882 3.99461 -48.1237 8.99062 -1.45231e-09 -3.10829e-09 -2.19384e-09 -2.39944e-09 -5.39736e-09 -3.83154e-09 -1.45232e-09 -3.10829e-09 -2.19383e-09 -7.73091 5.47488 -0.417314 -1.45231e-09 -3.10829e-09 -2.19383e-09 -2.90554 0.965183 -0.102902 -1.45232e-09 -3.10828e-09 -2.19384e-09 -10.2786 0.731801 -0.0259123 -1.45231e-09 -3.10828e-09 -2.19384e-09 -2.22167 -0.733487 0.20892 -2.03217e-16 0.0 -3.88251e-19 6.57225 -7.42023 19.8126 -0.0229617 5.17044 0.383728 -4.16589 -5.69469 -16.7982 2.03217e-16 0.0 3.88251e-19 5.47648 -8.61438 -33.3063 0.00138434 13.4933 -0.178863 9.00944 -12.5275 43.1395
2.26029 83.0615 49.2461 -8.9465 -0.8461 6.3857 6.17655 -2.2335 0.580568 -12.2981 -16.7182 -1.8804 -6.38492 10.2028 -10.2863 18.219 22.6511 -23.8495 -0.0 0.0 0.0 -0.0 0.0 0.0 -1.32505e-13 -7.10904e-14 5.82765e-16 -41.2089 63.5895 144.936 -25.4394 -47.2524 98.326 -0.0866561 -8.73317 -1.23502 7.18059e-10 8.59307e-11 -6.1591e-10 1.24829e-09 1.48613e-10 -1.05897e-09 7.18062e-10 8.59287e-11 -6.15909e-10 7.73091 5.47488 0.417314 7.1806e-10 8.59284e-11 -6.15904e-10 2.90554 0.965183 0.102902 7.1806e-10 8.59283e-11 -6.15903e-10 10.2786 0.731801 0.0259123 7.18051e-10 8.59316e-11 -6.1589e-10 2.22167 -0.733487 -0.20892 -1.32528e-13 -7.10905e-14 3.29627e-16 30.2303 63.4569 -112.266 27.8566 -29.8892 -67.1226 3.34095 -45.0867 8.08364 -2.7073e-10 -1.05571e-09 -5.91851e-10 -4.35381e-10 -1.82234e-09 -1.02813e-09 -2.70733e-10 -1.05571e-09 -5.9184e-10 -7.73091 5.47488 -0.417314 -2.70728e-10 -1.0557e-09 -5.91843e-10 -2.90554 0.965183 -0.102902 -2.70742e-10 -1.0557e-09 -5.91847e-10 -10.2786 0.731801 -0.0259123 -2.70731e-10 -1.0557e-09 -5.91852e-10 -2.22167 -0.733487 0.20892 -2.03217e-16 0.0 -3.88251e-19 5.80338 -7.78026 19.8346 -0.0271517 5.44764 0.389292 -4.22355 -5.78844 -16.9597 2.03217e-16 0.0 3.88251e-19 4.7078 -9.03267 -33.0819 0.00359027 13.7359 -0.190401 8.78338 -12.3974 42.7117
2.24872 83.0396 49.21 -8.9621 -0.348 6.5944 5.47645 -2.1993 0.446554 -11.9353 -16.6976 -1.85448 -7.01508 10.7891 -10.9465 18.7914 22.2322 -25.1888 -0.0 0.0 0.0 -0.0 0.0 0.0 2.79512e-14 -4.77433e-15 -3.12589e-14 -41.5699 64.8969 145.669 -25.2419 -47.6104 99.0743 -0.0504435 -6.39637 -0.902742 6.1716e-10 9.26527e-11 -1.35523e-11 1.07045e-09 1.60379e-10 -2.27219e-11 6.17162e-10 9.26515e-11 -1.35492e-11 7.73091 5.47488 0.417314 6.1716e-10 9.26522e-11 -1.3546e-11 2.90554 0.965183 0.102902 6.17161e-10 9.26526e-11 -1.35444e-11 10.2786 0.731801 0.0259123 6.17153e-10 9.26563e-11 -1.35301e-11 2.22167 -0.733487 -0.20892 2.79091e-14 -4.76773e-15 -3.15571e-14 31.5158 60.0575 -114.241 28.0689 -31.0396 -68.9109 2.98193 -43.0658 7.54811 6.15692e-10 3.13517e-10 6.77083e-10 1.03731e-09 5.61527e-10 1.18973e-09 6.15689e-10 3.13522e-10 6.77096e-10 -7.73091 5.47488 -0.417314 6.15694e-10 3.13522e-10 6.77092e-10 -2.90554 0.965183 -0.102902 6.1568e-10 3.13523e-10 6.77088e-10 -10.2786 0.731801 -0.0259123 6.15689e-10 3.13522e-10 6.77083e-10 -2.22167 -0.733487 0.20892 -2.03217e-16 0.0 -3.88251e-19 5.36625 -8.06072 19.7858 -0.0306578 5.68196 0.391594 -4.28955 -5.87802 -17.1585 2.03217e-16 0.0 3.88251e-19 4.30263 -9.42214 -32.8563 0.00509067 13.9122 -0.200195 8.48841 -12.2078 42.1819
2.22268 83.0292 49.1415 -9.1877 0.1771 6.5914 5.41669 -2.05838 0.169785 -11.793 -16.7428 -1.91012 -7.56449 11.2384 -11.5388 19.3544 21.8564 -26.402 -0.0 0.0 0.0 -0.0 0.0 0.0 1.68958e-13 7.44778e-14 -5.70784e-14 -41.0988 65.73 145.915 -24.8903 -48.2163 100.353 -0.0231752 -4.29557 -0.605724 5.18615e-10 1.77611e-11 2.51033e-10 9.00773e-10 3.1217e-11 4.31636e-10 5.18618e-10 1.77589e-11 2.51034e-10 7.73091 5.47488 0.417314 5.18616e-10 1.77598e-11 2.51038e-10 2.90554 0.965183 0.102902 5.18618e-10 1.77604e-11 2.51039e-10 10.2786 0.731801 0.0259123 5.1861e-10 1.77641e-11 2.51052e-10 2.22167 -0.733487 -0.20892 1.6887e-13 7.44858e-14 -5.7394e-14 32.8252 56.4252 -116.182 28.2918 -32.4226 -70.8912 2.8806 -42.3982 7.38593 1.13471e-09 7.10557e-10 1.57591e-09 1.89812e-09 1.25095e-09 2.75479e-09 1.13471e-09 7.10563e-10 1.57592e-09 -7.73091 5.47488 -0.417314 1.13472e-09 7.10562e-10 1.57591e-09 -2.90554 0.965183 -0.102902 1.13471e-09 7.10563e-10 1.57591e-09 -10.2786 0.731801 -0.0259123 1.13471e-09 7.10562e-10 1.5759e-09 -2.22167 -0.733487 0.20892 -2.03217e-16 0.0 -3.88251e-19 5.4293 -8.233 19.6085 -0.0334136 5.87685 0.388919 -4.37157 -5.97159 -17.4191 2.03217e-16 0.0 3.88251e-19 4.45159 -9.78787 -32.5931 0.00547937 14.0002 -0.208266 8.05512 -11.898 41.4367
